<!--
 * --------------------------------------------------------------------
 *  Xoco POS — Point of Sale System
 *  Software Property of Xoco Café
 *  Copyright (c) 2025 Xoco Café
 *  Principal Developer: Donovan Riaño
 *
 *  Licensed under the Apache License, Version 2.0 (the "License");
 *  you may not use this file except in compliance with the License.
 *  You may obtain a copy of the License at:
 *      http://www.apache.org/licenses/LICENSE-2.0
 *
 *  Unless required by applicable law or agreed to in writing, software
 *  distributed under the License is distributed on an "AS IS" BASIS,
 *  WITHOUT WARRANTIES OR CONDITIONS OF ANY KIND, either express or implied.
 *  See the License for the specific language governing permissions and
 *  limitations under the License.
 *
 *  --------------------------------------------------------------------
 *  PROPIEDAD DEL SOFTWARE — XOCO CAFÉ.
 *  Sistema Xoco POS — Punto de Venta.
 *  Desarrollador Principal: Donovan Riaño.
 *
 *  Este archivo está licenciado bajo Apache License 2.0.
 *  Consulta el archivo LICENSE en la raíz del proyecto para más detalles.
 * --------------------------------------------------------------------
 -->
<svg xmlns="http://www.w3.org/2000/svg" viewBox="0 0 256 256">
  <rect width="256" height="256" fill="#f7f0e3"/>
  <g fill="#4b2b16">
    <path d="M88 56h18l25 53 25-53h18l-33 70 35 74h-18l-27-58-27 58H90l35-74z"/>
    <path d="M67 116c-14 0-27-15-27-34s13-34 27-34 27 15 27 34-13 34-27 34zm0-16c5 0 11-8 11-18s-6-18-11-18-11 8-11 18 6 18 11 18z"/>
    <path d="M189 209c-9 0-16-7-16-16s7-15 16-15 16 6 16 15-7 16-16 16zm0-21c-3 0-5 3-5 5s2 6 5 6 5-4 5-6-2-5-5-5z"/>
    <circle cx="214" cy="191" r="6"/>
    <path d="M129 58c-3 0-6-2-6-5s3-5 6-5 6 2 6 5-3 5-6 5zm-28-17c-2-3 0-6 2-7l24-12 24 12c2 1 4 4 2 7-1 2-4 3-7 1l-19-9-19 9c-3 2-6 1-7-1z"/>
    <path d="M133 39h-8c0-11 9-20 20-20h8c0 11-9 20-20 20z"/>
    <path d="M112 39c-11 0-20-9-20-20h8c11 0 20 9 20 20z"/>
  </g>
</svg>
